<svg id="Layer_2" data-name="Layer 2" xmlns="http://www.w3.org/2000/svg" viewBox="0 0 466.83 136.6"><defs><style>.cls-1,.cls-2,.cls-3{fill:#673ab7;}.cls-2{stroke:#000;stroke-miterlimit:10;stroke-width:0.5px;}.cls-3{font-size:61px;font-family:BerlinSansFBDemi-Bold, Berlin Sans FB Demi;font-weight:700;}</style></defs><path class="cls-1" d="M132.89,46.16S122.62,21.52,113.75,20s-57.71-1.92-63.26,1S38.43,37.09,34,46.16c0,0,11.17-20.88,16.53-23.81s62.22-2.7,64.92-.58C116.87,23,120.51,24,132.89,46.16Z"/><path class="cls-1" d="M33.74,46.35s.54-6.1-1.7-5.87S21.77,42,23.68,45.61s5.87,1.89,6.39,2.21,1,2.26,1,2.26l-.71-2.87s-3,.57-4.18.1-2.71-2.37-2.61-2.81-.2-2.56,8.8-3.7Z"/><path class="cls-1" d="M132.89,46.73s-.54-6.35,1.15-6.29,8.43.42,9.07,4-4.53,3.64-6.39,3.42l-1.06,2.5.87-2.85s5.56.89,6.34-2.19-5.91-4.81-8.93-4.6C133.94,40.71,133,41.48,132.89,46.73Z"/><path class="cls-1" d="M134.68,49.48a7.72,7.72,0,0,1,3.64,3.38c1.6,2.68,4.15,7.28,4.09,17s-4.47,24.7-7,26.3h-2.8l-2,2.68H118l-4.4-3.13,17.68-.19,1.34-.64,2,.07s6.47-12,6.83-22.22S139.6,56.11,134.68,49.48Z"/><path class="cls-1" d="M126.28,101.14s.42,3.85,1.32,4.57,10.93.47,11.57,0,2.72-.55,2.9-11.74.07-13.06.07-13.06-2.47,12.53-3.92,14.75-2.48,2.39-2.48,2.39l-2.91-.13-2,3.19Z"/><path class="cls-1" d="M31.72,49.8S21.26,55.8,25,75.26,30.7,94.8,30.7,94.8s5.24,4.27,5.88,4.34,12,.44,12,.44A55.43,55.43,0,0,1,53,96c.38-.07-15.83-.26-15.83-.26s-4.66-.83-6-4S24.83,73.35,25.28,70,27.32,54,31.72,49.8Z"/><path class="cls-1" d="M110.41,69.71s21.06-.43,24.72-5.11l-.21-7.32s-3-4.42-8.64-.8-.77,4.85-12.66,5.53A13.13,13.13,0,0,0,110.41,69.71Z"/><path class="cls-1" d="M56,69.75s-21.27-1.06-24.25-4.93l.3-7.41s.93-5.74,9.61-.47c2.6,1.79,2.13,4.86,11,4.64C56,62.05,56.36,69.77,56,69.75Z"/><path class="cls-1" d="M113.62,83.07s16.36.94,17.3-6.72C130.92,76.35,114.79,77,113.62,83.07Z"/><path class="cls-1" d="M53.81,83.07s-16.36.94-17.3-6.72C36.51,76.35,52.64,77,53.81,83.07Z"/><path class="cls-1" d="M24.58,80.18s-.9,20.74,2.17,25.15c1.08,1.78,11.8.89,12.7.57s1.08-4.59,1.08-4.59l-4,.06L27.89,94S25.92,81,24.58,80.18Z"/><path class="cls-1" d="M116.68,96.26H50s7-8.55,13.6-13.85c2.62-2,38.11-1,38.49-.64S104.17,82,116.68,96.26Z"/><path class="cls-1" d="M105.21,62.82H61.38s1.2,9.27,9.79,10.55,25.7,0,25.7,0S102.58,72,105.21,62.82Z"/><path class="cls-2" d="M38.58,43.84s50-4.43,89.43-.68c0,0-8.12-20.34-11.33-20.47s-66.13-.34-66.13-.34S42.51,32.86,38.58,43.84Z"/><path class="cls-1" d="M33.68,45.52s-.08-5.11-1.59-4.87-6.38,1-7.57,2.22-1.16,1.28-1,2,1.07,3.22,5.86,2.71l.82-.07.48,1.14.16.52.21.74,2.68-3.73Z"/><path class="cls-1" d="M132.89,46.43s-.07-5.8.94-5.83,5.64.16,8.06,2.11a2.58,2.58,0,0,1-.36,4.44,10.32,10.32,0,0,1-4.77.59s-.09-.47-.39.59a15.59,15.59,0,0,1-.56,1.66Z"/><text class="cls-3" transform="translate(162.87 89.16)">CarMart</text></svg>